<svg xmlns="http://www.w3.org/2000/svg" viewBox="0 0 800 520" role="img" aria-labelledby="title desc">
  <title id="title">Illustration accompagnement educatif</title>
  <desc id="desc">Dessin vectoriel d'une formatrice et d'un eleve devant un tableau</desc>
  <defs>
    <linearGradient id="bg" x1="0" y1="0" x2="1" y2="1">
      <stop offset="0%" stop-color="#f6f2e8" />
      <stop offset="100%" stop-color="#ece3cf" />
    </linearGradient>
    <linearGradient id="accent" x1="0" y1="0" x2="1" y2="1">
      <stop offset="0%" stop-color="#132f63" />
      <stop offset="100%" stop-color="#1f4f9b" />
    </linearGradient>
  </defs>
  <rect width="800" height="520" rx="28" fill="url(#bg)" />
  <rect x="60" y="80" width="400" height="260" rx="18" fill="url(#accent)" opacity="0.95" />
  <rect x="88" y="110" width="344" height="200" rx="10" fill="#fff" opacity="0.08" />
  <path d="M130 250 L210 170 L260 220 L350 140" stroke="#d8bb7a" stroke-width="10" fill="none" stroke-linecap="round" stroke-linejoin="round" />
  <circle cx="130" cy="250" r="10" fill="#d8bb7a" />
  <circle cx="210" cy="170" r="10" fill="#d8bb7a" />
  <circle cx="260" cy="220" r="10" fill="#d8bb7a" />
  <circle cx="350" cy="140" r="10" fill="#d8bb7a" />
  <circle cx="600" cy="220" r="44" fill="#132f63" />
  <rect x="560" y="264" width="80" height="110" rx="22" fill="#1f4f9b" />
  <rect x="492" y="276" width="60" height="18" rx="9" fill="#1f4f9b" />
  <rect x="648" y="276" width="60" height="18" rx="9" fill="#1f4f9b" />
  <circle cx="710" cy="250" r="30" fill="#132f63" />
  <rect x="680" y="282" width="60" height="72" rx="18" fill="#1f4f9b" />
  <rect x="700" y="328" width="72" height="14" rx="7" fill="#1f4f9b" />
  <rect x="540" y="382" width="250" height="16" rx="8" fill="#132f63" opacity="0.2" />
</svg>
