<svg xmlns="http://www.w3.org/2000/svg" viewBox="0 0 800 520" role="img" aria-labelledby="title desc">
  <title id="title">Illustration insertion et orientation</title>
  <desc id="desc">Dessin vectoriel representant orientation professionnelle et progression</desc>
  <defs>
    <linearGradient id="bg2" x1="0" y1="0" x2="1" y2="1">
      <stop offset="0%" stop-color="#f6f2e8" />
      <stop offset="100%" stop-color="#eee5d3" />
    </linearGradient>
    <linearGradient id="accent2" x1="0" y1="0" x2="1" y2="1">
      <stop offset="0%" stop-color="#152f5b" />
      <stop offset="100%" stop-color="#20549f" />
    </linearGradient>
  </defs>
  <rect width="800" height="520" rx="28" fill="url(#bg2)" />
  <rect x="70" y="92" width="300" height="320" rx="24" fill="#ffffff" />
  <rect x="110" y="136" width="220" height="18" rx="9" fill="#dcd0b5" />
  <rect x="110" y="172" width="180" height="14" rx="7" fill="#ece3cf" />
  <rect x="110" y="198" width="200" height="14" rx="7" fill="#ece3cf" />
  <rect x="110" y="224" width="160" height="14" rx="7" fill="#ece3cf" />
  <circle cx="130" cy="286" r="12" fill="#d8bb7a" />
  <rect x="152" y="278" width="130" height="16" rx="8" fill="#d8bb7a" />
  <circle cx="130" cy="326" r="12" fill="#d8bb7a" />
  <rect x="152" y="318" width="110" height="16" rx="8" fill="#d8bb7a" />
  <rect x="430" y="120" width="300" height="300" rx="24" fill="url(#accent2)" />
  <path d="M470 330 L535 262 L585 300 L675 200" stroke="#d8bb7a" stroke-width="12" fill="none" stroke-linecap="round" stroke-linejoin="round" />
  <polygon points="666,188 696,194 684,220" fill="#d8bb7a" />
  <circle cx="470" cy="330" r="10" fill="#d8bb7a" />
  <circle cx="535" cy="262" r="10" fill="#d8bb7a" />
  <circle cx="585" cy="300" r="10" fill="#d8bb7a" />
  <circle cx="675" cy="200" r="10" fill="#d8bb7a" />
  <rect x="470" y="362" width="220" height="14" rx="7" fill="#fff" opacity="0.3" />
  <rect x="470" y="388" width="170" height="14" rx="7" fill="#fff" opacity="0.22" />
</svg>
